<svg width="113" height="133" viewBox="0 0 113 133" fill="none" xmlns="http://www.w3.org/2000/svg">
<path d="M108.046 115.302C105.212 115.585 102.608 115.053 100.371 113.97C99.8106 113.675 100.229 112.828 100.794 113.11C103.167 114.26 105.903 114.684 108.518 114.285C111.98 110.847 113.65 105.654 112.767 100.836C111.871 95.9574 108.348 91.672 103.797 89.7352C103.748 89.7473 103.7 89.7836 103.651 89.7836C103.615 89.7836 103.567 89.7836 103.53 89.7715C101.085 89.1542 98.5671 88.5126 96.0492 88.7668C95.4137 88.8245 95.3275 87.8794 95.9523 87.8226C98.4219 87.5683 100.916 88.1252 103.179 88.6942C105.167 81.7201 98.4841 73.4726 93.2408 72.8484C92.6719 72.7757 92.0303 72.9694 91.7276 73.4536C94.1614 64.2165 89.3806 56.9563 81.3534 55.4531V62.4015C81.3534 63.0915 81.0872 63.7573 80.5908 64.2537L75.1555 69.6889C75.3734 69.6405 75.5793 69.6284 75.7971 69.5558C76.2204 69.4234 76.6004 69.931 76.3055 70.3063C75.664 71.1416 75.555 72.4247 76.015 73.5626C76.0271 73.5989 76.0393 73.6473 76.0634 73.6836C77.3739 74.2174 78.0069 74.3731 79.0656 75.6084C79.4771 76.1531 79.7798 76.7584 79.9371 77.3879C82.3369 78.6968 84.9653 79.1686 87.394 78.9374C88.0605 78.9083 88.0792 79.8254 87.4908 79.8815C85.2141 80.1416 82.2502 79.653 80.0702 78.5136C80.054 79.217 79.8513 79.8669 79.6466 80.2084C79.1624 79.1431 78.2666 78.2352 77.0561 77.7268C61.8471 71.3632 44.5096 70.8966 28.0177 77.7268C26.8192 78.2352 25.9235 79.1431 25.4392 80.2084C25.403 80.1599 25.3787 80.0994 25.3546 80.0389C24.3502 77.8317 25.6194 75.0825 28.0177 74.0831C30.7803 72.9556 33.2601 72.1348 34.034 71.9284C32.7988 71.6034 32.9755 71.2229 25.8387 64.2537C24.6803 63.0951 25.1878 61.7807 25.064 60.1984C22.4855 59.1452 19.2656 59.5205 16.8324 60.6341C12.414 62.6436 8.14085 69.0594 11.724 73.5142C15.6824 72.6063 20.0282 73.4294 23.3693 75.7294C23.5872 75.8868 23.6477 76.1773 23.4903 76.3952C23.3464 76.6212 23.0097 76.6605 22.8366 76.5163C19.6772 74.3494 15.5856 73.5747 11.8572 74.4584C11.6272 74.5068 11.3972 74.3736 11.3124 74.1558C10.4354 74.4799 9.44542 74.6316 7.4993 76.1531C3.38862 79.3748 1.4826 84.2882 0.550836 89.4689C-0.46596 95.2794 -0.211825 101.501 2.47561 106.755C5.16293 111.985 10.5983 116.04 16.4814 116.004C15.5025 110.764 17.8719 106.539 21.4445 105.036C23.0736 104.34 25.3431 104.144 27.0856 104.177C27.0371 104.08 27.013 103.971 27.0371 103.862C27.8459 99.9102 30.5748 96.756 33.1624 95.5457C35.5674 94.3775 40.3964 93.9251 43.2703 94.0205C45.1103 94.0689 47.7734 94.3352 49.6618 95.9694C50.1303 96.4085 49.5131 97.0917 49.0324 96.6957C47.374 95.2552 44.9287 95.0252 43.2461 94.9768C40.3978 94.893 35.8085 95.341 33.574 96.4052C31.2174 97.5193 28.7223 100.4 27.9693 104.056C27.9572 104.116 27.9088 104.165 27.8724 104.213C36.6006 104.714 39.7533 111.344 37.5203 115.81C38.9608 118.049 41.8177 119.333 44.6866 119.03C46.7566 118.8 49.2382 117.505 49.8071 115.193C49.9494 114.596 50.8727 114.782 50.7271 115.423C50.0276 118.323 46.8107 120.035 43.8392 120.035C41.1155 120.035 38.5008 118.751 36.9756 116.694C34.7107 119.723 30.3634 119.917 27.7998 117.299C27.3701 116.84 28.0347 116.178 28.4898 116.633C29.5429 117.723 31.1287 118.291 32.6419 118.146C36.3633 117.789 38.5011 113.626 36.5035 109.842C35.5714 108.087 33.7919 106.634 31.6251 105.859C28.4003 104.721 23.8815 105.034 21.8198 105.908C18.6048 107.283 16.4451 111.196 17.4498 116.052C17.5689 116.553 16.8762 116.855 16.5783 116.391C15.4161 120.918 18.1761 125.857 22.1588 128.399C26.2866 131.038 31.3829 131.619 36.2856 131.777C41.6845 131.958 47.2893 131.631 52.095 129.21C52.0345 129.005 52.1072 128.763 52.3008 128.654C60.8191 123.669 62.349 112.519 58.8134 108.68C57.9661 107.748 56.7314 107.058 54.9398 106.489C54.326 106.284 54.6262 105.384 55.2182 105.581C57.2136 106.209 58.9158 107.071 60.0845 108.74C60.3535 106.307 62.2627 103.374 65.084 101.998C65.326 101.877 65.6045 101.974 65.7256 102.216C65.8345 102.446 65.7377 102.736 65.5077 102.845C63.2682 103.959 61.5614 106.162 61.0651 108.607C60.6174 110.728 61.4294 111.169 61.283 111.658C62.5066 117.504 59.5502 125.184 53.2813 129.162C59.8787 132.285 68.0982 131.777 74.2476 127.806C74.7197 127.504 75.204 127.116 75.4703 126.644C73.5213 125.942 71.7298 124.38 70.1319 121.984C69.345 120.809 68.8608 119.853 68.5824 118.897C67.1726 114.115 70.7215 108.2 75.2766 108.523C75.8985 108.579 75.8557 109.479 75.2161 109.479C71.3569 109.193 68.2692 114.453 69.5024 118.618C69.7566 119.49 70.1924 120.362 70.9187 121.451C72.6013 123.957 74.4776 125.47 76.4871 125.966C76.7413 126.027 76.8987 126.281 76.8382 126.535C76.8261 126.596 76.7777 126.632 76.7534 126.668C79.0292 128.109 81.9224 128.569 84.5371 127.843C85.7114 127.516 86.9461 126.741 87.3698 125.676C87.4248 119.905 82.9789 115.988 78.5087 116.912C78.2545 116.96 78.0003 116.803 77.9518 116.548C77.8913 116.282 78.0608 116.028 78.3151 115.979C83.2197 114.975 88.383 119.15 88.3261 125.688C88.3261 125.748 88.3139 125.809 88.2898 125.857C90.7229 129.102 94.8024 131.087 98.8698 130.869C103.373 130.627 107.634 127.697 109.474 123.581C110.733 120.797 110.527 116.948 108.046 115.302ZM92.0061 73.9136C92.8414 75.8505 93.2771 78.0052 93.2771 80.1236C93.2771 80.7534 92.3208 80.7432 92.3208 80.1236C92.3329 78.1262 91.9092 76.1168 91.1224 74.2889C90.8921 73.7129 91.7385 73.3192 92.0061 73.9136ZM19.3866 105.484C17.8977 105.966 16.2435 106.347 14.6777 106.235C11.094 106.065 8.77801 103.697 8.69772 101.017C8.01984 101.514 7.24506 101.853 6.40981 101.659C4.45245 101.238 2.84418 97.6076 4.37615 94.4562C4.49716 94.2262 4.77563 94.1294 5.01765 94.2383C5.25978 94.3594 5.35667 94.65 5.23555 94.88C3.95539 97.5055 5.31262 100.454 6.60344 100.727C7.43873 100.908 8.27397 100.206 9.00036 99.4799C9.37678 99.1325 9.94421 99.519 9.78714 99.9642C9.07079 102.321 11.0143 105.09 14.7382 105.29C15.9971 105.363 17.3893 105.133 19.0961 104.576C19.7185 104.398 19.9897 105.312 19.3866 105.484ZM31.9398 96.1389C31.7703 96.1389 31.6008 96.0541 31.5161 95.8968C30.5356 94.1052 28.5261 92.9068 26.4803 92.9673C24.8903 92.9907 23.1377 93.7672 21.3356 93.8147C16.6535 93.8841 12.6601 89.3304 13.4551 83.1136C13.5417 82.478 14.4705 82.5843 14.4114 83.2347C13.6821 88.8442 17.2056 92.9058 21.3114 92.8584C22.9992 92.8087 24.6153 92.0594 26.4561 92.011C28.8408 91.9868 31.2135 93.3426 32.3514 95.4367C32.5324 95.7495 32.3062 96.1389 31.9398 96.1389ZM47.6403 84.99C44.2977 86.2128 45.3013 87.7155 44.2024 87.4957C43.9603 87.3868 43.8392 87.1204 43.9361 86.8663C44.4203 85.6679 45.5582 84.7358 47.3134 84.0821C51.0176 82.7383 55.2787 83.0895 58.7045 85.0505C59.2537 85.3684 58.7958 86.1822 58.2324 85.8858C55.0487 84.0579 51.0903 83.7189 47.6403 84.99ZM82.1282 108.099C78.316 104.084 76.9888 98.2319 68.195 95.5457C68.0308 95.6006 67.8734 95.5509 67.7714 95.4489C67.2525 95.1895 65.2767 94.8574 64.4908 94.771C56.9995 93.9456 45.7024 97.6676 42.9556 104.637C42.4834 105.835 42.3503 106.925 42.5803 107.869C43.2356 110.627 47.9608 113.557 53.0998 112.42C53.7367 112.299 53.9095 113.237 53.3055 113.353C50.5561 113.968 47.4262 113.523 44.8682 111.985C41.8566 110.196 40.7394 107.617 42.0719 104.286C45.151 96.4531 57.9385 92.4563 66.3066 94.0931C65.0992 92.8086 64.4634 91.5086 64.515 89.6263C64.6051 85.7492 67.5583 81.9806 72.565 80.8499C73.0604 80.7556 73.3701 81.3843 72.9524 81.6973C72.904 81.7337 72.8434 81.77 72.7708 81.7821C68.2 82.8008 65.5386 86.2438 65.4713 89.6505C65.3989 91.8996 66.4898 93.059 68.1708 94.541C77.6145 97.2574 78.9721 103.386 82.8182 107.445C84.5977 109.285 87.6482 111.053 90.4324 109.951C91.6308 109.467 92.5993 108.498 93.3013 107.712C93.4829 107.506 93.7855 107.494 93.9793 107.663C94.1729 107.845 94.1972 108.147 94.0155 108.341C93.2408 109.213 92.1755 110.278 90.7834 110.835C87.5634 112.118 84.1135 110.169 82.1282 108.099ZM100.649 120.301C96.6813 120.882 93.9878 119.056 93.2045 116.706C92.0027 113.184 95.3016 108.374 96.2913 103.596C98.5639 92.6023 87.8377 86.3028 76.1966 90.7763C75.6024 90.9843 75.2882 90.1083 75.8577 89.8805C85.8964 86.0058 94.232 89.8645 96.7514 96.26C99.9649 104.473 92.583 111.807 94.1003 116.403C94.7518 118.337 97.0602 119.884 100.516 119.357C100.782 119.32 101.012 119.502 101.049 119.756C101.097 120.023 100.916 120.265 100.649 120.301ZM74.9014 73.2358C74.6955 72.3641 74.7319 71.4805 75.0103 70.7178C74.6107 70.7906 74.4117 70.8094 74.2235 70.621C73.8513 70.9116 73.2039 72.001 71.7661 72.001H71.3303C71.8482 72.1737 72.9937 72.502 74.9014 73.2358Z" fill="#85C91A"/>
<path d="M38.6704 132.301C32.8897 132.301 26.6327 131.826 21.8981 128.8C17.9154 126.254 14.5894 120.802 16.2692 115.713C16.4674 115.113 17.3742 115.413 17.1759 116.012C15.6468 120.644 18.7328 125.643 22.4123 127.995C26.5575 130.645 31.7602 131.155 36.3032 131.305C41.4733 131.476 47.4432 131.274 52.4928 128.49C52.6317 128.413 52.8001 128.411 52.9402 128.482C59.5219 131.838 67.784 131.415 73.9885 127.407C74.8136 126.874 75.2091 126.382 75.1972 125.903C75.187 125.494 75.6679 125.258 75.9839 125.528C78.2413 127.455 81.5472 128.184 84.4062 127.383C85.7279 127.014 87.1234 126.044 87.0631 124.788C87.0531 124.569 87.1937 124.37 87.4042 124.308C87.6146 124.243 87.8421 124.335 87.9521 124.525C90.1397 128.266 94.5213 130.615 98.8439 130.39C103.171 130.157 107.27 127.344 109.043 123.39C110.283 120.627 110.033 116.813 107.468 115.471C106.909 115.179 107.348 114.333 107.91 114.625C110.967 116.224 111.331 120.623 109.915 123.781C107.998 128.053 103.57 131.091 98.8947 131.343C94.6194 131.571 90.2827 129.455 87.77 125.99C86.5297 128.664 80.5408 130.05 75.9668 126.729C75.6063 127.498 74.8177 128.008 74.5062 128.209C68.0907 132.353 59.5739 132.83 52.7316 129.446C48.3109 131.805 43.1361 132.301 38.6704 132.301Z" fill="#1C4537"/>
<path d="M98.3016 76.0775C97.1111 74.9569 95.2575 73.5696 93.1858 73.3231C92.7395 73.264 92.3098 73.4242 92.1337 73.7073C91.8439 74.1685 91.128 73.859 91.2672 73.3326C92.4079 69.0024 91.9221 64.7188 89.9337 61.5802C88.0451 58.6002 84.7182 56.5668 81.2969 55.9289L81.4435 54.9844L81.3548 55.4537L81.4748 54.9903C89.3482 56.4923 94.2724 63.369 92.4588 72.4194C92.723 72.3555 93.0096 72.339 93.3022 72.3756C95.6287 72.6523 97.6614 74.163 98.9565 75.3825C99.148 75.5633 99.1574 75.8654 98.9766 76.0575C98.7943 76.2501 98.493 76.2579 98.3016 76.0775Z" fill="#1C4537"/>
<path d="M0.081509 89.3851C1.03495 84.0823 2.99636 79.0782 7.20518 75.7779C9.27373 74.1618 10.3147 74.0384 11.2197 73.6778C7.06516 68.2367 13.5354 58.3825 22.5862 59.1421C22.8406 59.1664 23.4971 59.2274 23.7666 59.3277C23.8735 59.33 24.084 59.3732 24.295 59.4435C24.3192 59.4412 24.441 59.4624 24.5775 59.531C24.7034 59.5476 24.9251 59.6244 25.1461 59.7255C25.8749 59.925 25.5076 60.9489 24.7761 60.6068C23.2533 59.8895 19.9901 59.7266 17.03 61.0696C12.4328 63.1588 8.67602 69.5177 12.331 73.5194C12.5343 73.7426 12.4836 74.0954 12.2234 74.2518C10.9095 75.0357 10.259 74.6022 7.79329 76.5298C3.78275 79.6754 1.9318 84.492 1.02131 89.5542C0.910076 90.1756 -0.0304871 90.0074 0.081509 89.3851Z" fill="#1C4537"/>
<path d="M38.6714 132.302C32.8907 132.302 26.6337 131.827 21.8991 128.8C21.6768 128.658 21.6118 128.363 21.7542 128.141C22.5425 126.904 23.2371 130.875 36.3042 131.305C41.4743 131.477 47.4442 131.274 52.4938 128.49C52.6327 128.413 52.8011 128.412 52.9412 128.482C59.5229 131.839 67.785 131.416 73.9895 127.408C74.8146 126.874 75.2101 126.382 75.1982 125.904C75.188 125.495 75.6689 125.258 75.9849 125.529C78.2423 127.455 81.5482 128.185 84.4072 127.384C85.7289 127.014 87.1244 126.044 87.0641 124.789C87.0541 124.57 87.1947 124.371 87.4052 124.309C87.6156 124.243 87.8431 124.336 87.9531 124.525C90.1406 128.267 94.5223 130.616 98.8449 130.39C103.172 130.158 107.271 127.345 109.044 123.391C109.307 122.816 110.173 123.206 109.916 123.782C107.999 128.053 103.571 131.092 98.8957 131.343C94.6204 131.571 90.2837 129.456 87.771 125.99C86.5318 128.665 80.5418 130.051 75.9678 126.729C75.6072 127.498 74.8187 128.008 74.5072 128.209C68.0917 132.353 59.5749 132.831 52.7326 129.446C48.3119 131.806 43.1371 132.302 38.6714 132.302Z" fill="#1C4537"/>
<path d="M32.2786 72.4863C31.896 72.6139 30.6315 73.0558 29.8213 73.37C31.5921 72.6971 32.144 72.5338 32.2786 72.4863Z" fill="#1C4537"/>
<path d="M74.9021 73.2366C74.4299 73.055 73.9578 72.8735 73.4736 72.7161C70.872 71.8219 73.2948 72.5936 74.9021 73.2366Z" fill="#1C4537"/>
<path d="M79.6458 80.2094C78.6411 82.243 76.2322 83.042 74.1621 82.1825C61.0575 76.6217 45.6287 76.1321 30.9101 82.1825C28.8522 83.042 26.4432 82.243 25.4385 80.2094C25.9227 79.1441 26.8185 78.2362 28.0169 77.7278C44.4851 70.9074 61.8203 71.3533 77.0553 77.7278C78.2658 78.2362 79.1616 79.1441 79.6458 80.2094Z" fill="#1C4537"/>
<path d="M24.7483 79.8026C24.2276 78.2037 24.6644 76.3785 25.8826 75.0237C26.897 73.8713 28.2143 73.4691 29.6513 72.9236C30.6191 72.5476 32.9554 71.7225 33.9106 71.4678C34.103 71.412 34.1828 71.4997 34.3486 71.4997C34.6955 71.5352 71.4226 71.5287 71.4812 71.5488C74.4391 72.5377 74.437 72.5045 77.2354 73.6418C80.0861 74.8492 81.1958 77.9582 80.1665 80.2477C79.9338 80.8384 79.3594 80.7314 79.2119 80.4067C78.7568 79.406 77.9257 78.611 76.8706 78.1676C61.9762 71.9376 44.7401 71.3244 28.2002 78.1683C27.1558 78.6115 26.3282 79.4071 25.8731 80.4072C25.8034 80.5609 25.6574 80.6661 25.4895 80.6839C25.0441 80.7299 24.9101 80.2497 24.7483 79.8026ZM34.043 72.4212C33.1795 72.662 30.8035 73.4589 28.1984 74.526C26.2712 75.3289 25.2131 77.341 25.5462 79.085C26.1184 78.3036 26.904 77.6812 27.8308 77.2881C34.5754 74.496 41.158 72.9686 47.9103 72.4791C35.3558 72.4665 34.4508 72.5065 34.043 72.4212ZM57.173 72.4791C63.8632 72.9642 70.5902 74.5056 77.2401 77.287C78.1716 77.6788 78.9601 78.2995 79.534 79.0797C79.8543 77.3405 78.8288 75.3528 76.8695 74.5237C74.1882 73.4339 73.503 73.2216 71.2531 72.4791H57.173Z" fill="#1C4537"/>
<path d="M25.4393 80.2096C25.3672 80.0893 25.3091 80.0511 25.1973 79.6406C25.2355 79.746 25.3722 80.1199 25.4393 80.2096Z" fill="white"/>
<path d="M25.0079 80.4227C24.8865 80.2493 24.7899 79.9647 24.736 79.7648C24.5781 79.182 25.4391 78.9049 25.6457 79.4782C25.69 79.5999 25.7338 79.7217 25.7893 79.8435L25.7775 79.8553C26.1239 80.4432 25.3295 80.972 25.0079 80.4227Z" fill="#1C4537"/>
<path d="M82.3416 34.6945C82.0484 31.3402 80.0564 28.2057 77.1436 26.5158C76.596 26.198 77.0779 25.3721 77.6224 25.6895C80.8006 27.5337 82.9734 30.9524 83.2932 34.6118C83.3471 35.2418 82.3968 35.3236 82.3416 34.6945Z" fill="#1C4537"/>
<path d="M94.1466 54.7657H87.513C86.8812 54.7657 86.881 53.8105 87.513 53.8105H94.1466C94.7785 53.8105 94.7786 54.7657 94.1466 54.7657Z" fill="#1C4537"/>
<path d="M93.1689 44.2862H89.0775C88.4456 44.2862 88.4455 43.3311 89.0775 43.3311H93.1689C93.8007 43.3311 93.8009 44.2862 93.1689 44.2862Z" fill="#1C4537"/>
<path d="M94.3606 33.8087H88.0609C87.429 33.8087 87.4289 32.8535 88.0609 32.8535H94.3606C94.9924 32.8535 94.9925 33.8087 94.3606 33.8087Z" fill="#1C4537"/>
<path d="M87.2367 28.1572H81.3535V59.4614H87.2367C88.2536 59.4614 89.0767 58.6383 89.0767 57.6214V29.9972C89.0767 28.9804 88.2536 28.1572 87.2367 28.1572ZM84.0772 52.9004C84.0772 53.5159 83.1209 53.5367 83.1209 52.9004V32.3336C83.1209 32.0793 83.3267 31.8614 83.593 31.8614C83.8593 31.8614 84.0772 32.0793 84.0772 32.3336V52.9004ZM87.5635 48.034C87.5635 48.6495 86.6073 48.6707 86.6073 48.034V39.0882C86.6073 38.4521 87.5635 38.4726 87.5635 39.0882V48.034Z" fill="#B8DCC5"/>
<path d="M18.9127 54.7657H12.2796C11.6478 54.7657 11.6476 53.8105 12.2796 53.8105H18.9127C19.1763 53.8105 19.3902 54.0245 19.3902 54.2881C19.3902 54.5518 19.1763 54.7657 18.9127 54.7657Z" fill="#1C4537"/>
<path d="M17.3532 44.2862H13.2493C12.6175 44.2862 12.6174 43.3311 13.2493 43.3311H17.3532C17.985 43.3311 17.9851 44.2862 17.3532 44.2862Z" fill="#1C4537"/>
<path d="M18.3658 33.8087H12.0667C11.4348 33.8087 11.4347 32.8535 12.0667 32.8535H18.3658C18.9977 32.8535 18.9978 33.8087 18.3658 33.8087Z" fill="#1C4537"/>
<path d="M19.1926 28.1572C18.1757 28.1572 17.3525 28.9804 17.3525 29.9972V57.6214C17.3525 58.6383 18.1757 59.4614 19.1926 59.4614H25.0636V28.1572H19.1926ZM19.7495 44.1119C19.7495 44.7617 18.7931 44.7431 18.7931 44.1119V40.1414C18.7931 39.5113 19.7495 39.49 19.7495 40.1414V44.1119ZM22.5336 50.443C22.5336 51.0777 21.5773 51.0596 21.5773 50.443V37.2846C21.5773 36.6686 22.5336 36.6488 22.5336 37.2846V50.443Z" fill="#B8DCC5"/>
<path d="M25.0638 59.9389H19.1926C17.9147 59.9389 16.875 58.8992 16.875 57.6213V29.9973C16.875 28.7194 17.9147 27.6797 19.1926 27.6797H25.0638C25.6956 27.6797 25.6957 28.6349 25.0638 28.6349H19.1926C18.4413 28.6349 17.8302 29.246 17.8302 29.9973V57.6213C17.8302 58.3725 18.4413 58.9837 19.1926 58.9837H25.0638C25.6956 58.9837 25.6957 59.9389 25.0638 59.9389Z" fill="#1C4537"/>
<path d="M68.8609 72.002V80.282C59.2658 77.2521 48.1435 76.9197 37.5566 79.8825V72.002H68.8609Z" fill="#B8DCC5"/>
<path d="M42.2559 7.32087V0.687805C42.2559 0.0559518 43.2111 0.0558241 43.2111 0.687805V7.32087C43.2111 7.95272 42.2559 7.95285 42.2559 7.32087Z" fill="#1C4537"/>
<path d="M52.7305 5.76137V1.65753C52.7305 1.0257 53.6856 1.02553 53.6856 1.65753V5.76137C53.6856 6.39323 52.7305 6.39334 52.7305 5.76137Z" fill="#1C4537"/>
<path d="M63.2139 6.77304V0.473924C63.2139 -0.157911 64.169 -0.158039 64.169 0.473924V6.77304C64.169 7.40489 63.2139 7.40502 63.2139 6.77304Z" fill="#1C4537"/>
<path d="M67.0326 5.76172H39.3963C38.3794 5.76172 37.5684 6.58487 37.5684 7.58962V15.6274H68.8605V7.58962C68.8605 6.58487 68.0373 5.76172 67.0326 5.76172ZM49.7341 7.22641H56.0531C56.3073 7.22641 56.5252 7.43225 56.5252 7.69853C56.5252 7.96487 56.3073 8.18277 56.0531 8.18277H49.7341C49.1186 8.18277 49.0978 7.22641 49.7341 7.22641ZM60.3626 11.1486H45.8242C45.2056 11.1486 45.1934 10.1922 45.8242 10.1922H60.3626C60.6289 10.1922 60.8468 10.4101 60.8468 10.6643C60.8468 10.9306 60.6289 11.1486 60.3626 11.1486Z" fill="#B8DCC5"/>
<path d="M71.7651 72.4795C32.2017 72.4497 34.6119 72.5558 33.9238 72.3938C32.4587 72.01 32.5401 71.4421 25.5003 64.5922C24.9105 64.0017 24.5859 63.2244 24.5859 62.4029V24.7312C24.5859 23.9143 24.9211 23.1193 25.5045 22.5495L32.001 16.053C32.5673 15.4725 33.3469 15.1504 34.191 15.1504H72.2498C73.0732 15.1504 73.8682 15.4808 74.4315 16.0565L80.9274 22.5536C81.4996 23.1116 81.8306 23.9066 81.8306 24.7312V62.4029C81.8306 63.2327 81.5096 64.01 80.9274 64.5922L73.9551 71.5651C73.3646 72.155 72.5873 72.4795 71.7651 72.4795ZM34.191 16.1056C33.6058 16.1056 33.0697 16.3249 32.6802 16.7238L26.1753 23.2286C25.7705 23.6241 25.5411 24.1702 25.5411 24.7312V62.4029C25.5411 62.9697 25.7663 63.5076 26.1753 63.9172C33.5152 71.1137 33.3049 71.5243 34.6626 71.5243H71.7651C72.3326 71.5243 72.8704 71.2992 73.2801 70.8901L80.2524 63.9172C80.6543 63.5153 80.8754 62.9774 80.8754 62.4029V24.7312C80.8754 24.1625 80.6502 23.6164 80.2565 23.2328L73.7523 16.728C73.3587 16.3249 72.8261 16.1056 72.2498 16.1056H34.191Z" fill="#1C4537"/>
<path d="M47.77 67.2319C47.1382 67.2319 47.138 66.2767 47.77 66.2767C70.0333 66.2704 68.332 66.2926 68.5606 66.259C69.1906 66.167 69.3226 67.1106 68.7013 67.2035C68.4053 67.2478 62.8085 67.2251 47.77 67.2319ZM29.8332 59.1566C29.8156 58.9525 29.8275 60.1758 29.8238 38.2562C29.8238 37.6243 30.7789 37.6242 30.7789 38.2562L30.7848 59.0786C30.8372 59.7064 29.8856 59.7881 29.8332 59.1566ZM75.6476 49.1444V28.2823C75.6476 27.6363 76.6028 27.6436 76.6028 28.2604V49.1444C76.6028 49.7762 75.6476 49.7764 75.6476 49.1444ZM58.647 21.3419H37.785C37.1531 21.3419 37.153 20.3867 37.785 20.3867H58.647C59.2789 20.3867 59.279 21.3419 58.647 21.3419Z" fill="#1C4537"/>
<path d="M68.3072 26.9941H38.1185C37.1714 26.9941 36.4004 27.7652 36.4004 28.7122V58.9077C36.4004 59.8546 37.1714 60.6258 38.1185 60.6258H68.3072C69.2609 60.6258 70.0252 59.8546 70.0252 58.9077V28.7122C70.0252 27.7652 69.2609 26.9941 68.3072 26.9941ZM54.8272 53.1388C54.82 53.7758 53.8664 53.7636 53.872 53.1293C53.9386 46.6118 53.9794 39.781 50.7222 34.0305C49.7648 32.3423 48.779 32.3165 47.9258 34.2167C46.5193 37.3512 45.4721 40.798 44.6788 44.9087C44.7411 44.7633 44.8666 44.6481 45.0342 44.6214C47.2242 44.2691 49.4567 44.158 51.6732 44.2886C52.3026 44.3254 52.2492 45.2802 51.6165 45.2414C45.8398 44.9027 44.6821 46.1851 44.6411 45.1109C44.2574 47.1309 43.9288 49.2971 43.6576 51.6895C43.5876 52.3083 42.637 52.2144 42.7083 51.5819C43.556 44.1131 44.8959 38.6367 47.0545 33.8254C48.2594 31.1461 50.2315 31.2285 51.5532 33.56C53.0676 36.2346 54.028 39.3768 54.4903 43.1661C54.8946 46.4862 54.8603 49.8684 54.8272 53.1388ZM62.8387 53.0903H57.5834C56.9516 53.0903 56.9514 52.1352 57.5834 52.1352H62.8387C63.4705 52.1352 63.4706 53.0903 62.8387 53.0903ZM63.2423 34.5459C62.5756 34.5447 59.6121 34.5395 59.7349 34.5397C59.9705 34.5892 60.1285 34.756 60.1327 34.9898L60.3887 50.9831C60.3986 51.6166 59.445 51.636 59.4335 50.9985L59.1775 35.0051C59.1739 34.7731 59.3398 34.5864 59.5585 34.5394L55.8178 34.5329C55.2727 34.5317 55.0994 33.7258 55.8202 33.5777L63.243 33.5907C63.875 33.5921 63.8731 34.5459 63.2423 34.5459Z" fill="black"/>
<path d="M24.9104 80.2439C23.8085 77.7842 25.1754 74.7648 27.8368 73.6486C29.0816 73.1309 30.3028 72.6651 31.4678 72.2632C32.0673 72.0595 32.3744 72.9602 31.7787 73.1663C30.6327 73.5612 29.4298 74.0198 28.2045 74.5299C26.0214 75.4446 24.908 77.9046 25.7811 79.852C26.6263 81.721 28.8033 82.5526 30.7367 81.747C44.6864 75.9063 60.2826 75.8603 74.3463 81.747C76.2827 82.5514 78.4573 81.7186 79.3013 79.8502C80.1784 77.895 79.0508 75.4404 76.8767 74.5293C75.587 73.9926 74.4232 73.5464 73.3196 73.1663C72.7224 72.9597 73.0327 72.0601 73.6306 72.2632C74.7536 72.6503 75.9357 73.1031 77.2444 73.6481C79.9117 74.7669 81.2726 77.7892 80.172 80.2421C79.114 82.5845 76.3956 83.6313 73.9787 82.6283C60.0554 76.7944 44.6992 76.9323 31.1049 82.6277C28.6866 83.6378 25.9683 82.5827 24.9104 80.2439Z" fill="#1C4537"/>
</svg>
