<svg width="20" height="20" viewBox="0 0 20 20" fill="none" xmlns="http://www.w3.org/2000/svg">
<rect width="20" height="20" fill="#1E1E1E"/>
<path d="M-448 -516C-448 -517.105 -447.105 -518 -446 -518H6147C6148.1 -518 6149 -517.105 6149 -516V654C6149 655.105 6148.1 656 6147 656H-446C-447.105 656 -448 655.105 -448 654V-516Z" fill="#444444"/>
<path d="M-446 -518V-517H6147V-518V-519H-446V-518ZM6149 -516H6148V654H6149H6150V-516H6149ZM6147 656V655H-446V656V657H6147V656ZM-448 654H-447V-516H-448H-449V654H-448ZM-446 656V655C-446.552 655 -447 654.552 -447 654H-448H-449C-449 655.657 -447.657 657 -446 657V656ZM6149 654H6148C6148 654.552 6147.55 655 6147 655V656V657C6148.66 657 6150 655.657 6150 654H6149ZM6147 -518V-517C6147.55 -517 6148 -516.552 6148 -516H6149H6150C6150 -517.657 6148.66 -519 6147 -519V-518ZM-446 -518V-519C-447.657 -519 -449 -517.657 -449 -516H-448H-447C-447 -516.552 -446.552 -517 -446 -517V-518Z" fill="white" fill-opacity="0.1"/>
<g clip-path="url(#clip0_37_3)">
<rect width="375" height="812" transform="translate(-323 -337)" fill="#FAFAFA"/>
<rect x="-307" y="-14" width="343" height="88" rx="16" fill="#E5E5E5"/>
<g clip-path="url(#clip1_37_3)">
<path d="M8.12402 19.9971L6.07793 14.5432L0.624023 12.4971L6.07793 10.451L8.12402 4.99707L10.1701 10.451L15.624 12.4971L10.1701 14.5432L8.12402 19.9971Z" fill="#85C91A"/>
<path d="M3.4375 6.87207L2.5168 4.35527L0 3.43457L2.5168 2.51387L3.4375 -0.00292969L4.3582 2.51387L6.875 3.43457L4.3582 4.35527L3.4375 6.87207Z" fill="#85C91A"/>
<path d="M15.623 9.99707L14.4078 6.8373L11.248 5.62207L14.4078 4.40684L15.623 1.24707L16.8383 4.40684L19.998 5.62207L16.8383 6.8373L15.623 9.99707Z" fill="#85C91A"/>
</g>
</g>
<defs>
<clipPath id="clip0_37_3">
<rect width="375" height="812" fill="white" transform="translate(-323 -337)"/>
</clipPath>
<clipPath id="clip1_37_3">
<rect width="20" height="20" fill="white"/>
</clipPath>
</defs>
</svg>
